<?xml version="1.0" encoding="UTF-8" standalone="no"?>
<!DOCTYPE svg PUBLIC "-//W3C//DTD SVG 1.1//EN" "http://www.w3.org/Graphics/SVG/1.1/DTD/svg11.dtd">
<svg width="100%" height="100%" viewBox="0 0 100 100" version="1.1" xmlns="http://www.w3.org/2000/svg" xmlns:xlink="http://www.w3.org/1999/xlink" xml:space="preserve" xmlns:serif="http://www.serif.com/" style="fill-rule:evenodd;clip-rule:evenodd;stroke-linecap:round;stroke-linejoin:round;stroke-miterlimit:1.5;">
    <g id="c">
        <g transform="matrix(1.09794,0,0,1.09794,-1.10834,-2.83734)">
            <g transform="matrix(0.97577,-0.633672,0.696344,1.07228,-37.5515,21.5885)">
                <path d="M42.879,15.233L67.245,63.807L18.513,63.807L42.879,15.233Z" style="fill:rgb(127,128,127);stroke:white;stroke-width:0.75px;"/>
            </g>
            <g transform="matrix(0.838462,-0.544961,0.544961,0.838462,-35.7029,33.0445)">
                <rect x="46.215" y="70.938" width="16.788" height="24.714" style="fill:rgb(127,128,127);stroke:white;stroke-width:0.91px;"/>
            </g>
        </g>
        <g transform="matrix(1.09794,0,0,1.09794,13.1732,-2.83734)">
            <g transform="matrix(0.97577,-0.633672,0.696344,1.07228,-37.5515,21.5885)">
                <path d="M42.879,15.233L67.245,63.807L18.513,63.807L42.879,15.233Z" style="stroke:white;stroke-width:0.75px;"/>
            </g>
            <g transform="matrix(0.838462,-0.544961,0.544961,0.838462,-35.7029,33.0445)">
                <rect x="46.215" y="70.938" width="16.788" height="24.714" style="stroke:white;stroke-width:0.91px;"/>
            </g>
        </g>
    </g>
</svg>
